<?xml version="1.0" encoding="utf-8"?>
<!-- Generator: Adobe Illustrator 26.0.2, SVG Export Plug-In . SVG Version: 6.00 Build 0)  -->
<svg version="1.1" id="Layer_1" xmlns="http://www.w3.org/2000/svg" xmlns:xlink="http://www.w3.org/1999/xlink" x="0px" y="0px"
	 viewBox="0 0 359.4 320.6" style="enable-background:new 0 0 359.4 320.6;" xml:space="preserve">
<style type="text/css">
	.st0{fill:#6F6F6E;}
	.st1{fill:#4C4A4C;}
	.st2{fill:#43B666;}
	.st3{fill:#02B3DE;}
	.st4{fill:#502390;}
	.st5{fill:#9B50BB;}
	.st6{fill:none;}
	.st7{fill:#4C4C4D;}
	.st8{fill:#43B766;}
	.st9{fill:#02B4DF;}
	.st10{fill:#9C50BC;}
</style>
<g>
	<g>
		<path class="st1" d="M70.3,223.5h12.4V209c0-1.8,0.6-3.3,1.9-4.5c1.3-1.3,2.8-1.9,4.7-1.9c1.8,0,3.3,0.6,4.6,1.9
			c1.3,1.2,1.9,2.7,1.9,4.5v10h5v2.8h-6.4c-0.8,0-1.5-0.7-1.5-1.4V209c0-2-1.7-3.6-3.7-3.6c-2,0-3.7,1.6-3.7,3.6V225
			c0,0.8-0.7,1.4-1.5,1.4H70.2c-2.3,0-4.3-0.8-6-2.4c-1.7-1.6-2.5-3.6-2.5-5.9c0-3.6,2.2-6.4,4.7-7.7l0.8-0.4c0.1,0,0.2,0,0.2,0
			c0.2,0,0.4,0.1,0.5,0.3l0.8,1.6c0,0.1,0.1,0.2,0.1,0.3c0,0.2-0.1,0.3-0.3,0.4l-0.8,0.4c-1.7,0.9-3.2,2.7-3.2,5.1
			C64.6,221,67.2,223.5,70.3,223.5z M74.1,230.6v2.3c0,0.3-0.2,0.5-0.5,0.5h-2c-0.4,0-0.5-0.2-0.5-0.5v-2.3c0-0.3,0.2-0.5,0.5-0.5h2
			C73.9,230,74.1,230.2,74.1,230.6z M79.3,230.6v2.3c0,0.3-0.2,0.5-0.5,0.5h-1.9c-0.4,0-0.6-0.2-0.6-0.5v-2.3c0-0.3,0.2-0.5,0.6-0.5
			h1.9C79.2,230,79.3,230.2,79.3,230.6z"/>
		<path class="st1" d="M107.4,216.9v-13c0-0.3,0.2-0.5,0.6-0.5h1.8c0.4,0,0.6,0.2,0.6,0.5v13.5c0,0.4,0.1,0.7,0.3,1
			c0.4,0.4,1.2,0.6,2.3,0.6h1.9v2.8h-1.3c-1.9,0-3.4-0.5-4.3-1.4c0,0-0.1,0-0.1-0.1c0,0-0.1,0.2-0.1,0.2c-0.9,0.9-2.1,1.3-3.7,1.3
			h-5.9V219h6C106.8,219,107.4,218.3,107.4,216.9z M107.3,198.2V196c0-0.3,0.2-0.5,0.5-0.5h1.9c0.4,0,0.6,0.2,0.6,0.5v2.3
			c0,0.3-0.2,0.5-0.6,0.5h-1.9C107.5,198.7,107.3,198.6,107.3,198.2z"/>
		<path class="st1" d="M134.5,221.8h-20.7V219h6.2v-24.6c0-0.3,0.2-0.5,0.6-0.5h1.8c0.4,0,0.5,0.2,0.5,0.5V208
			c3.9-3.6,7.3-5.4,10.2-5.4c5.1,0,8.1,3.8,8.1,8.9v3.7C141.2,219.3,138.7,221.8,134.5,221.8z M138.3,215.2v-3.7
			c0-1.4-0.3-2.6-0.8-3.6c-0.9-1.7-2.4-2.5-4.4-2.5c-1.3,0-3,0.7-5,1.9c-2,1.2-3.7,2.7-5.1,4.5v7.2h11.5
			C137.1,219,138.3,217.8,138.3,215.2z"/>
		<path class="st1" d="M160.7,222.3v-0.5h-5.4c-2.3,0-4.3-0.8-5.9-2.4c-1.6-1.6-2.4-3.5-2.4-5.8v-2.9c0-2.2,0.8-4.2,2.4-5.8
			c1.6-1.6,3.6-2.4,5.9-2.4c2.3,0,4.3,0.8,5.9,2.4c1.6,1.6,2.4,3.5,2.4,5.8v8.2h6v2.8h-6v0.5c0,2.1-0.8,3.8-2.3,5.3
			c-1.5,1.5-3.4,2.2-5.5,2.2h-4.1c-0.3,0-0.5-0.2-0.5-0.5v-1.8c0-0.3,0.2-0.5,0.5-0.5h4.1C158.5,227,160.7,224.8,160.7,222.3z
			 M155.3,219h5.4v-8.2c0-2.9-2.4-5.3-5.4-5.3c-3,0-5.5,2.4-5.5,5.3v2.9C149.9,216.6,152.4,219,155.3,219z"/>
		<path class="st1" d="M175,216.9v-22.5c0-0.3,0.2-0.5,0.5-0.5h1.9c0.4,0,0.5,0.2,0.5,0.5v22.5c0,3-2,4.9-5,4.9h-4.6V219h4.6h0
			C174.3,219,175,218.3,175,216.9z"/>
		<path class="st1" d="M186.6,221.8h-1.9c-0.4,0-0.5-0.2-0.5-0.5v-26.9c0-0.3,0.2-0.5,0.5-0.5h1.9c0.3,0,0.5,0.2,0.5,0.5v26.9
			C187.1,221.7,186.9,221.8,186.6,221.8z"/>
		<path class="st1" d="M205.1,223.3v-19.4c0-0.3,0.2-0.5,0.5-0.5h1.9c0.4,0,0.6,0.2,0.6,0.5V219h6v2.8h-6v1.5c0,4.1-2.6,6.6-6.8,6.6
			h-2c-0.4,0-0.5-0.2-0.5-0.5v-1.8c0-0.3,0.2-0.5,0.5-0.5h2C203.9,227,205.1,225.9,205.1,223.3z M205.1,198.2V196
			c0-0.3,0.2-0.5,0.5-0.5h1.9c0.4,0,0.6,0.2,0.6,0.5v2.3c0,0.3-0.2,0.5-0.6,0.5h-1.9C205.3,198.7,205.1,198.6,205.1,198.2z"/>
		<path class="st1" d="M227.2,195.3h3.3c0.4,0,0.5,0.2,0.5,0.5v1.8c0,0.3-0.2,0.5-0.5,0.5h-3.3c-4.1,0-6.4,2.1-6.8,6.3h7.4
			c2.5,0,4.6,0.8,6.3,2.5c1.7,1.7,2.4,3.8,2.4,6.3v3.7c0,3-1.9,4.9-5,4.9h-19.4V219h19.4c1.5,0,2.2-0.7,2.2-2.1v-3.7
			c0-3.5-2.3-5.9-5.8-5.9h-8.9c-0.8,0-1.5-0.6-1.5-1.4C217.5,199.6,220.9,195.3,227.2,195.3z"/>
		<path class="st1" d="M244.8,223.3v-19.4c0-0.3,0.2-0.5,0.6-0.5h1.8c0.4,0,0.6,0.2,0.6,0.5V219h6v2.8h-6v1.5c0,4.1-2.6,6.6-6.8,6.6
			h-2c-0.4,0-0.5-0.2-0.5-0.5v-1.8c0-0.3,0.2-0.5,0.5-0.5h2C243.6,227,244.8,225.9,244.8,223.3z"/>
		<path class="st1" d="M276.9,219h3v2.8h-2.4c-2.1,0-3.8-0.8-4.7-2.2c-1.6,1.5-3.6,2.2-5.7,2.2h-15.2V219h6.9v-8.2
			c0-2.2,0.8-4.2,2.4-5.8c1.6-1.6,3.6-2.4,5.9-2.4s4.3,0.8,5.9,2.4c1.6,1.6,2.4,3.6,2.4,5.8v2.9c0,1.4-0.3,2.6-0.9,3.8
			C274.6,218.5,275.6,219,276.9,219z M261.5,210.7v8.2h5.5c3,0,5.5-2.4,5.5-5.3v-2.9c0-2.9-2.4-5.3-5.5-5.3S261.5,207.8,261.5,210.7
			z"/>
		<path class="st1" d="M285.6,216.9v-22.5c0-0.3,0.2-0.5,0.5-0.5h1.9c0.4,0,0.5,0.2,0.5,0.5v22.5c0,3-2,4.9-5,4.9h-4.6V219h4.6h0
			C284.9,219,285.6,218.3,285.6,216.9z"/>
		<path class="st1" d="M297.2,221.8h-1.9c-0.4,0-0.5-0.2-0.5-0.5v-26.9c0-0.3,0.2-0.5,0.5-0.5h1.9c0.3,0,0.5,0.2,0.5,0.5v26.9
			C297.7,221.7,297.5,221.8,297.2,221.8z"/>
	</g>
	<g>
		<path class="st1" d="M67.8,261.8l9.6,0l0-11c0-1.4,0.5-2.5,1.5-3.4c1-1,2.2-1.4,3.6-1.4c1.4,0,2.6,0.5,3.6,1.4
			c1,0.9,1.5,2.1,1.5,3.4l0,7.6l3.9,0l0,2.1l-5,0c-0.6,0-1.1-0.5-1.1-1.1l0-8.6c0-1.5-1.3-2.7-2.9-2.7c-1.6,0-2.9,1.2-2.9,2.7
			l0,12.1c0,0.6-0.5,1.1-1.1,1.1l-10.8,0c-1.8,0-3.3-0.6-4.6-1.8c-1.3-1.2-1.9-2.7-1.9-4.5c0-2.7,1.7-4.8,3.7-5.8l0.6-0.3
			c0.1,0,0.1,0,0.2,0c0.2,0,0.3,0.1,0.4,0.2l0.6,1.2c0,0.1,0.1,0.1,0.1,0.2c0,0.1-0.1,0.2-0.2,0.3l-0.6,0.3
			c-1.3,0.6-2.5,2.1-2.5,3.9C63.4,259.9,65.4,261.8,67.8,261.8z M70.8,267.1l0,1.7c0,0.3-0.1,0.4-0.4,0.4l-1.5,0
			c-0.3,0-0.4-0.1-0.4-0.4l0-1.7c0-0.3,0.1-0.4,0.4-0.4l1.5,0C70.7,266.7,70.8,266.8,70.8,267.1z M74.9,267.1l0,1.7
			c0,0.3-0.1,0.4-0.4,0.4l-1.5,0c-0.3,0-0.4-0.1-0.4-0.4l0-1.7c0-0.3,0.2-0.4,0.4-0.4l1.5,0C74.7,266.7,74.9,266.8,74.9,267.1z"/>
		<path class="st1" d="M96.6,256.7l0-9.9c0-0.3,0.2-0.4,0.4-0.4l1.4,0c0.3,0,0.4,0.1,0.4,0.4l0,9.9c0,2.3-1.6,3.7-3.9,3.7l-4.6,0
			l0-2.1l4.7,0C96.1,258.3,96.6,257.8,96.6,256.7z M98.9,240.9l0,1.7c0,0.3-0.2,0.4-0.4,0.4l-1.5,0c-0.3,0-0.4-0.1-0.4-0.4l0-1.7
			c0-0.3,0.1-0.4,0.4-0.4l1.5,0C98.8,240.4,98.9,240.6,98.9,240.9z"/>
		<path class="st1" d="M113.4,260.8l0-0.4l-4.2,0c-1.8,0-3.3-0.6-4.6-1.8c-1.3-1.2-1.9-2.7-1.9-4.4l0-2.2c0-1.7,0.6-3.2,1.9-4.4
			c1.3-1.2,2.8-1.8,4.6-1.8c1.8,0,3.3,0.6,4.6,1.8c1.3,1.2,1.9,2.7,1.9,4.4l0,8.8c0,1.6-0.6,2.9-1.8,4.1c-1.2,1.1-2.6,1.7-4.3,1.7
			l-3.2,0c-0.3,0-0.4-0.1-0.4-0.4l0-1.4c0-0.3,0.1-0.4,0.4-0.4l3.2,0C111.7,264.4,113.4,262.8,113.4,260.8z M109.2,258.3l4.2,0
			l0-6.3c0-2.2-1.9-4.1-4.2-4.1c-2.3,0-4.2,1.8-4.2,4.1l0,2.2C105,256.5,106.9,258.3,109.2,258.3z"/>
		<path class="st1" d="M122.1,261.6l0-14.7c0-0.3,0.2-0.4,0.4-0.4l1.4,0c0.3,0,0.4,0.1,0.4,0.4l0,11.5l4.7,0l0,2.1l-4.7,0l0,1.1
			c0,3.1-2,5-5.2,5l-1.5,0c-0.3,0-0.4-0.1-0.4-0.4l0-1.4c0-0.3,0.1-0.4,0.4-0.4l1.5,0C121.2,264.4,122.1,263.6,122.1,261.6z"/>
		<path class="st1" d="M134.4,256.7l0-9.9c0-0.3,0.2-0.4,0.4-0.4l1.4,0c0.3,0,0.4,0.1,0.4,0.4l0,10.3c0,0.3,0.1,0.6,0.3,0.7
			c0.3,0.3,0.9,0.5,1.8,0.5l1.4,0l0,2.1h-1c-1.5,0-2.7-0.4-3.4-1.1c0,0,0,0,0-0.1l-0.1,0.1c-0.7,0.7-1.6,1-2.8,1l-5.3,0l0-2.1l5.3,0
			C133.9,258.3,134.4,257.8,134.4,256.7z M132.3,242.6l0-1.7c0-0.3,0.2-0.4,0.4-0.4l1.5,0c0.3,0,0.4,0.1,0.4,0.4l0,1.7
			c0,0.3-0.1,0.4-0.4,0.4l-1.5,0C132.5,243,132.3,242.9,132.3,242.6z M136.4,242.6l0-1.7c0-0.3,0.1-0.4,0.4-0.4l1.5,0
			c0.3,0,0.4,0.1,0.4,0.4l0,1.7c0,0.3-0.2,0.4-0.4,0.4l-1.5,0C136.5,243,136.4,242.9,136.4,242.6z"/>
		<path class="st1" d="M151.2,240.4l2.5,0c0.3,0,0.4,0.1,0.4,0.4l0,1.4c0,0.3-0.1,0.4-0.4,0.4l-2.5,0c-3.2,0-5,1.6-5.3,4.8l5.7,0
			c2,0,3.6,0.6,4.9,1.9c1.3,1.3,1.9,2.8,1.9,4.8l0,3.2c0,0.4,0.1,0.6,0.3,0.7c0.3,0.3,0.9,0.5,1.8,0.5l1.6,0l0,2.1l-1.2,0
			c-1.5,0-2.6-0.4-3.3-1.1l-0.1-0.1c-0.7,0.7-1.7,1.1-2.9,1.1l-15.1,0l0-2.1l15,0c1.1,0,1.7-0.5,1.7-1.6l0-2.8
			c0-2.6-1.8-4.5-4.6-4.5l-6.9,0c-0.6,0-1.1-0.5-1.1-1.1C143.6,243.6,146.3,240.4,151.2,240.4z"/>
		<path class="st1" d="M166.3,256.7l0-17.1c0-0.3,0.1-0.4,0.4-0.4l1.4,0c0.3,0,0.4,0.1,0.4,0.4l0,17.1c0,2.3-1.5,3.7-3.9,3.7l-3.6,0
			l0-2.1l3.6,0h0C165.8,258.3,166.3,257.8,166.3,256.7z"/>
		<path class="st1" d="M184.9,255.5l0-15.8c0-0.3,0.1-0.4,0.4-0.4l1.4,0c0.3,0,0.4,0.1,0.4,0.4l0,15.8c0,3.1-2,5-5.2,5l-9.1,0
			c-0.3,0-0.4-0.1-0.4-0.4l0-1.4c0-0.3,0.1-0.4,0.4-0.4l9.1,0C184,258.3,184.9,257.4,184.9,255.5z M177.7,264.8l0,1.7l3.1,0
			c0.2,0,0.3,0.1,0.3,0.3v0.6c0,0.2-0.1,0.3-0.3,0.3l-5.2,0c-0.2,0-0.3-0.1-0.3-0.3l0-0.6c0-0.2,0.1-0.3,0.3-0.3l0.9,0l0-1.7
			c0-1.2,1-2.2,2.3-2.2c1,0,1.7,0.5,2.1,1.4l0.2,0.3c0,0,0,0.1,0,0.1c0,0.1-0.1,0.2-0.2,0.2l-0.6,0.2c-0.1,0-0.1,0-0.2,0
			c-0.1,0-0.2-0.1-0.2-0.2l-0.1-0.3c-0.2-0.4-0.5-0.6-1-0.6C178.2,263.8,177.7,264.3,177.7,264.8z M177.2,255.5l0-13.5
			c0-0.3,0.1-0.4,0.4-0.4l1.4,0c0.3,0,0.4,0.1,0.4,0.4l0,13.5c0,0.3-0.1,0.4-0.4,0.4l-1.4,0C177.3,255.9,177.2,255.8,177.2,255.5z"
			/>
		<path class="st1" d="M194,260.5l-1.5,0c-0.3,0-0.4-0.1-0.4-0.4l0-20.4c0-0.3,0.1-0.4,0.4-0.4l1.5,0c0.2,0,0.4,0.1,0.4,0.4l0,20.4
			C194.3,260.4,194.2,260.5,194,260.5z"/>
		<path class="st1" d="M225.4,258.3l2.4,0l0,2.1l-2,0c-1.6,0-2.9-0.6-3.7-1.7c-1.3,1.1-2.8,1.7-4.4,1.7l-7.6,0c-1.1,0-2.1,0.9-2.1,2
			l0,4c0,0.3-0.2,0.4-0.4,0.4l-1.4,0c-0.3,0-0.4-0.1-0.4-0.4l0-4c0-2.3,2-4.1,4.3-4.1l1.1,0l0-6.3c0-1.7,0.6-3.2,1.9-4.4
			c1.3-1.2,2.8-1.8,4.6-1.8c1.8,0,3.3,0.6,4.5,1.8s1.9,2.7,1.9,4.4l0,2.2c0,1-0.2,2-0.7,2.9C223.6,257.9,224.4,258.3,225.4,258.3z
			 M213.5,252l0,6.3l4.2,0c2.3,0,4.2-1.8,4.2-4l0-2.2c0-2.2-1.9-4-4.2-4C215.4,248,213.5,249.8,213.5,252z"/>
		<path class="st1" d="M233.2,256.7l0-9.9c0-0.3,0.2-0.4,0.4-0.4l1.4,0c0.3,0,0.4,0.1,0.4,0.4l0,10.3c0,0.3,0.1,0.6,0.2,0.7
			c0.3,0.3,0.9,0.5,1.8,0.5l1.4,0l0,2.1l-1,0c-1.5,0-2.6-0.4-3.4-1.1c0,0-0.1,0-0.1-0.1c0,0-0.1,0.1-0.1,0.1c-0.7,0.7-1.7,1-2.9,1
			l-4.6,0l0-2.1l4.7,0C232.7,258.3,233.2,257.8,233.2,256.7z M232,263.7l0,1.7c0,0.3-0.1,0.4-0.4,0.4l-1.5,0c-0.3,0-0.4-0.1-0.4-0.4
			l0-1.7c0-0.3,0.1-0.4,0.4-0.4l1.5,0C231.9,263.3,232,263.4,232,263.7z M236.1,263.7l0,1.7c0,0.3-0.2,0.4-0.4,0.4l-1.5,0
			c-0.3,0-0.4-0.1-0.4-0.4l0-1.7c0-0.3,0.2-0.4,0.4-0.4l1.5,0C235.9,263.3,236.1,263.4,236.1,263.7z"/>
		<path class="st1" d="M243.5,256.7l0-17c0-0.3,0.1-0.4,0.4-0.4l1.4,0c0.3,0,0.4,0.1,0.4,0.4l0,17.4c0,0.4,0.1,0.6,0.3,0.7
			c0.3,0.3,0.9,0.5,1.8,0.5l1.6,0l0,2.1h-1.2c-1.6,0-2.6-0.4-3.4-1.1c0,0.1-0.1,0.1-0.1,0.1c-0.7,0.7-1.6,1-2.8,1l-3.7,0l0-2.1
			l3.7,0C243,258.3,243.5,257.8,243.5,256.7z"/>
		<path class="st1" d="M269.5,260.5l-21,0l0-2.1l7.1,0l-3-6.1c-0.1-0.1-0.1-0.3-0.1-0.5l0-0.1c0.2-1.5,0.9-2.8,2.2-3.9
			c1.4-1.2,2.9-1.9,4.6-1.9c1.7,0,3.3,0.6,4.6,1.7c1.3,1.1,2.1,2.5,2.2,4.1v0.1c0,0.1,0,0.3-0.1,0.4l-3,6.1l6.3,0L269.5,260.5z
			 M256.4,249.1c-0.8,0.7-1.4,1.5-1.6,2.4l3.3,6.8l2.6,0l3.3-6.8c-0.2-1-0.7-1.8-1.6-2.5c-0.9-0.7-1.9-1.1-3-1.1
			C258.3,248,257.3,248.4,256.4,249.1z"/>
		<path class="st1" d="M275.5,256.7l0-9.9c0-0.3,0.2-0.4,0.4-0.4l1.4,0c0.3,0,0.4,0.1,0.4,0.4l0,10.3c0,0.3,0.1,0.6,0.3,0.7
			c0.3,0.3,0.9,0.5,1.8,0.5l1.4,0l0,2.1h-1c-1.5,0-2.7-0.4-3.4-1.1c0,0,0,0,0-0.1l-0.1,0.1c-0.7,0.7-1.6,1-2.8,1l-5.3,0l0-2.1l5.3,0
			C275,258.3,275.5,257.8,275.5,256.7z M273.4,242.6l0-1.7c0-0.3,0.2-0.4,0.4-0.4l1.5,0c0.3,0,0.4,0.1,0.4,0.4l0,1.7
			c0,0.3-0.1,0.4-0.4,0.4l-1.5,0C273.5,243,273.4,242.8,273.4,242.6z M277.5,242.6l0-1.7c0-0.3,0.1-0.4,0.4-0.4l1.5,0
			c0.3,0,0.4,0.1,0.4,0.4l0,1.7c0,0.3-0.2,0.4-0.4,0.4l-1.5,0C277.6,243,277.5,242.8,277.5,242.6z"/>
		<path class="st1" d="M285.8,256.7l0-17c0-0.3,0.1-0.4,0.4-0.4l1.4,0c0.3,0,0.4,0.1,0.4,0.4l0,17.4c0,0.4,0.1,0.6,0.3,0.7
			c0.3,0.3,0.9,0.5,1.8,0.5l1.6,0l0,2.1h-1.2c-1.6,0-2.6-0.4-3.4-1.1c0,0.1-0.1,0.1-0.1,0.1c-0.7,0.7-1.6,1-2.8,1l-3.7,0l0-2.1
			l3.7,0C285.3,258.3,285.8,257.8,285.8,256.7z"/>
		<path class="st1" d="M296,256.7l0-17.1c0-0.3,0.1-0.4,0.4-0.4l1.4,0c0.3,0,0.4,0.1,0.4,0.4l0,17.1c0,2.3-1.5,3.7-3.9,3.7l-3.6,0
			l0-2.1l3.6,0h0C295.5,258.3,296,257.8,296,256.7z"/>
	</g>
	<g>
		<path class="st1" d="M62.4,279.8c0,0.3,0.1,3.3,0.1,3.8l0,8.6l-1.5,0l0-14.3l2.3,0l4.8,9.1c0.1,0.3,1.5,2.9,1.6,3.2l0.1,0
			c0-0.4,0-3.5,0-3.8l0-8.5l1.5,0l0,14.3l-2.2,0l-4.8-9.1c-0.1-0.3-1.5-2.9-1.6-3.2L62.4,279.8z"/>
		<path class="st1" d="M81.9,284.3l0,5c0,1,0.3,1.7,1.1,1.7l0.3,0l0,1.2c-0.1,0.1-0.4,0.1-0.6,0.1c-1.1,0-1.7-0.6-2-1.3l-0.1,0
			c-0.5,0.6-1.4,1.5-3.3,1.5c-2,0-3.2-1.4-3.2-3c0-2.5,2.4-3.7,6.3-3.6l0-1.2c0-1.8-0.9-2.3-2.3-2.3c-1.5,0-2.2,0.8-2.5,1.4
			l-1.1-0.9c0.4-0.5,1.4-1.8,3.7-1.8C80.5,280.9,81.9,281.9,81.9,284.3z M80.4,287.1c-2.6-0.1-4.7,0.6-4.7,2.2c0,1,0.7,1.8,2,1.8
			c1.2,0,2.2-0.8,2.7-1.5L80.4,287.1z"/>
		<path class="st1" d="M86.1,289.2l0-6.9l-1.6,0l0-1l1.6-0.3l0.5-2.9l1.1,0l0,2.9l3,0l0,1.3l-3,0l0,6.8c0,1.2,0.6,1.8,1.6,1.8
			c0.9,0,1.4-0.2,1.7-0.4l0.4,1.3c-0.4,0.2-1.1,0.5-2.5,0.5C87.1,292.3,86.1,291.3,86.1,289.2z"/>
		<path class="st1" d="M94.6,276.6c0.7,0,1.2,0.5,1.2,1.2c0,0.7-0.5,1.1-1.2,1.1c-0.6,0-1.1-0.5-1.1-1.1
			C93.5,277.1,94,276.6,94.6,276.6z M93.9,281l1.6,0l0,11.1l-1.6,0L93.9,281z"/>
		<path class="st1" d="M98.7,286.6c0-3.4,1.3-5.8,4.6-5.8c3.3,0,4.5,2.3,4.5,5.7c0,3.4-1.3,5.8-4.6,5.8
			C99.8,292.3,98.7,290,98.7,286.6z M103.2,290.9c2.1,0,2.9-1.4,2.9-4.3c0-3-0.9-4.4-3-4.4c-2.1,0-2.9,1.4-2.9,4.3
			C100.3,289.5,101.2,290.9,103.2,290.9z"/>
		<path class="st1" d="M118.8,292.1l-1.6,0l0-7.3c0-1.7-0.8-2.6-2.4-2.6c-1.3,0-2.4,0.9-2.8,2l0,7.9l-1.6,0l0-11.1l1.2,0l0.3,1.2
			l0.1,0c0.3-0.4,1.4-1.4,3.1-1.4c2.2,0,3.5,1.2,3.6,3.7L118.8,292.1z"/>
		<path class="st1" d="M129.1,284.2l0,5c0,1,0.3,1.7,1.1,1.7l0.3,0l0,1.2c-0.1,0.1-0.4,0.1-0.6,0.1c-1.1,0-1.7-0.6-2-1.3l-0.1,0
			c-0.5,0.6-1.4,1.5-3.3,1.5c-2,0-3.2-1.4-3.2-3c0-2.5,2.4-3.7,6.3-3.6l0-1.2c0-1.8-0.9-2.3-2.3-2.3c-1.5,0-2.2,0.8-2.5,1.4
			l-1.1-0.9c0.4-0.5,1.4-1.8,3.7-1.8C127.7,280.8,129.1,281.9,129.1,284.2z M127.7,287c-2.6-0.1-4.7,0.6-4.7,2.2c0,1,0.7,1.8,2,1.8
			c1.2,0,2.2-0.8,2.7-1.5L127.7,287z"/>
		<path class="st1" d="M134.7,276.6l0,12.9c0,1,0.3,1.4,1.1,1.4c0.4,0,0.7-0.1,0.9-0.2l0,1.3c-0.4,0.2-0.9,0.2-1.4,0.2
			c-1.5,0-2.2-0.9-2.2-2.3l0-13.3L134.7,276.6z"/>
		<path class="st1" d="M152.3,291.2c-0.7,0.6-1.9,1-3.4,1c-3.1,0-4.8-1.6-4.8-5.8c0-4,2.2-5.7,4.6-5.7c2.6,0,4,1.7,4,4.3
			c0,0.6,0,1.2-0.1,1.9l-7,0c0.1,2.7,1.3,3.8,3.5,3.8c1.1,0,2.1-0.4,2.5-0.8L152.3,291.2z M145.6,285.7l5.5,0c0-0.2,0-0.5,0-0.6
			c0-1.9-0.8-3-2.6-3C147.1,282.1,145.7,283.1,145.6,285.7z"/>
		<path class="st1" d="M157.3,277.7l0,12.9l6.1,0l0,1.5l-7.7,0l0-14.3L157.3,277.7z"/>
		<path class="st1" d="M173.1,291.2c-0.7,0.6-1.9,1-3.4,1c-3.1,0-4.8-1.6-4.8-5.8c0-4,2.2-5.7,4.6-5.7c2.6,0,4,1.7,4,4.3
			c0,0.6,0,1.2-0.1,1.9l-7,0c0.1,2.7,1.3,3.8,3.5,3.8c1.1,0,2.1-0.4,2.5-0.8L173.1,291.2z M166.4,285.7l5.5,0c0-0.2,0-0.5,0-0.6
			c0-1.9-0.8-3-2.6-3C167.9,282.1,166.5,283,166.4,285.7z"/>
		<path class="st1" d="M183.4,284.1l0,5c0,1,0.3,1.7,1.1,1.7l0.3,0l0,1.2c-0.1,0.1-0.4,0.1-0.6,0.1c-1.1,0-1.7-0.6-2-1.3l-0.1,0
			c-0.5,0.6-1.4,1.5-3.3,1.5c-2,0-3.2-1.4-3.2-3c0-2.5,2.4-3.7,6.3-3.6l0-1.2c0-1.8-0.9-2.3-2.3-2.3c-1.5,0-2.2,0.8-2.5,1.4
			l-1.1-0.9c0.4-0.5,1.4-1.8,3.7-1.8C182,280.7,183.4,281.8,183.4,284.1z M182,286.9c-2.6-0.1-4.7,0.6-4.7,2.2c0,1,0.7,1.8,2,1.8
			c1.2,0,2.2-0.8,2.7-1.5L182,286.9z"/>
		<path class="st1" d="M192.8,282.4c-0.4-0.1-0.8-0.2-1.2-0.2c-1.1,0-2.2,0.4-2.7,1.4l0,8.3l-1.5,0l0-11.1l1.2,0l0.3,1.2l0.1,0
			c0.5-0.8,1.5-1.4,2.8-1.4c0.5,0,0.9,0,1.1,0.1L192.8,282.4z"/>
		<path class="st1" d="M202.8,292l-1.6,0l0-7.3c0-1.7-0.8-2.6-2.4-2.6c-1.3,0-2.4,0.9-2.8,2l0,7.9l-1.6,0l0-11.1l1.2,0l0.3,1.2
			l0.1,0c0.3-0.4,1.4-1.4,3.1-1.4c2.2,0,3.5,1.2,3.6,3.7L202.8,292z"/>
		<path class="st1" d="M207.3,276.4c0.7,0,1.2,0.5,1.2,1.2c0,0.7-0.5,1.1-1.2,1.1c-0.6,0-1.1-0.5-1.1-1.1
			C206.2,276.9,206.7,276.4,207.3,276.4z M206.6,280.9l1.6,0l0,11.1l-1.6,0L206.6,280.9z"/>
		<path class="st1" d="M220.2,291.9l-1.6,0l0-7.3c0-1.7-0.8-2.6-2.4-2.6c-1.3,0-2.4,0.9-2.8,2l0,7.9l-1.6,0l0-11.1l1.2,0l0.3,1.2
			l0.1,0c0.3-0.4,1.4-1.4,3.1-1.4c2.2,0,3.5,1.2,3.6,3.7L220.2,291.9z"/>
		<path class="st1" d="M231.4,292c0,2.9-1.8,4.4-4.5,4.4c-2.1,0-3.2-0.7-3.6-1.2l0.9-1.3c0.5,0.6,1.4,1,2.9,1c2,0,2.8-1,2.8-3l0-1
			l-0.1,0c-0.3,0.3-1.3,0.9-2.7,0.9c-2.3,0-4.2-1.4-4.2-5.2c0-3.6,1.7-5.9,5.3-6c1.4,0,2.5,0.2,3.1,0.6L231.4,292z M228,282.1
			c-2.1,0-3.5,1.4-3.5,4.4c0,3.2,1.5,4,3,4c0.9,0,1.8-0.4,2.3-1.1l0-7C229.3,282.2,228.7,282.1,228,282.1z"/>
		<path class="st1" d="M245.8,277.4c2.2,0,3.3,0.8,3.7,1.2l-1,1.2c-0.6-0.5-1.4-1-2.9-1c-2.5,0-4,1.8-4,5.9c0,3.9,1.4,5.9,4.1,5.9
			c1.4,0,2.3-0.4,2.8-0.9l0.9,1.2c-0.6,0.6-1.8,1.2-3.9,1.2c-3.9,0-5.6-2.8-5.6-7.2C240,280.2,242,277.4,245.8,277.4z"/>
		<path class="st1" d="M259.6,291c-0.7,0.6-1.9,1-3.4,1c-3.1,0-4.8-1.6-4.8-5.8c0-4,2.2-5.7,4.6-5.7c2.6,0,4,1.7,4,4.3
			c0,0.6,0,1.2-0.1,1.9l-7,0c0.1,2.7,1.3,3.8,3.5,3.8c1.1,0,2.1-0.4,2.5-0.8L259.6,291z M252.9,285.6l5.5,0c0-0.2,0-0.5,0-0.6
			c0-1.9-0.8-3-2.6-3C254.4,282,253.1,282.9,252.9,285.6z"/>
		<path class="st1" d="M271.2,291.9l-1.6,0l0-7.3c0-1.7-0.8-2.6-2.4-2.6c-1.3,0-2.4,0.9-2.8,2l0,7.9l-1.6,0l0-11.1l1.2,0l0.3,1.2
			l0.1,0c0.3-0.4,1.4-1.4,3.1-1.4c2.2,0,3.5,1.2,3.6,3.7L271.2,291.9z"/>
		<path class="st1" d="M274.8,288.9l0-6.9l-1.6,0l0-1l1.6-0.3l0.5-2.9l1.1,0l0,2.9l3,0l0,1.3l-3,0l0,6.8c0,1.2,0.6,1.8,1.6,1.8
			c0.9,0,1.4-0.2,1.7-0.4l0.4,1.3c-0.4,0.2-1.1,0.5-2.5,0.5C275.8,292,274.8,291,274.8,288.9z"/>
		<path class="st1" d="M289.8,291c-0.7,0.6-1.9,1-3.4,1c-3.1,0-4.8-1.6-4.8-5.8c0-4,2.2-5.7,4.6-5.7c2.6,0,4,1.7,4,4.3
			c0,0.6,0,1.2-0.1,1.9l-7,0c0.1,2.7,1.3,3.8,3.5,3.8c1.1,0,2.1-0.4,2.5-0.8L289.8,291z M283.1,285.5l5.5,0c0-0.2,0-0.5,0-0.6
			c0-1.9-0.8-3-2.6-3C284.6,281.9,283.2,282.8,283.1,285.5z"/>
		<path class="st1" d="M298.5,282.3c-0.4-0.1-0.8-0.2-1.2-0.2c-1.1,0-2.2,0.4-2.7,1.4l0,8.3l-1.5,0l0-11.1l1.2,0l0.3,1.2l0.1,0
			c0.5-0.8,1.5-1.4,2.8-1.4c0.5,0,0.9,0,1.1,0.1L298.5,282.3z"/>
	</g>
	<g>
		<g>
			<path class="st2" d="M153.9,53c0.1,0,0.1,0,0.2,0c0.1,0,0.2,0,0.3-0.1c0.1,0,0.1-0.1,0.1-0.1c-0.1-0.1-0.3-0.3-0.4-0.4
				c-2.9-2.7-5.8-5.4-8.7-8.1V53c1,0,2.2,0,3.1,0C150.3,53,152.1,52.9,153.9,53z"/>
			<path class="st2" d="M154.4,70.1C154.4,70.1,154.5,70.1,154.4,70.1c0.1-0.1,0-0.2,0-0.2c0,0-0.1-0.1-0.2-0.1c-0.3,0-0.5,0-0.6,0
				c-0.3,0-3.4,0.1-8.2,0v8.6C148.5,75.7,151.4,72.9,154.4,70.1z"/>
			<path class="st2" d="M175.6,24.2h-3.2c0,0,0,0,0,0h0c0,0,0,0,0,0h-26.9c0,0,0,0,0,0c0,0,0,0,0,0.1c0,0,0,0,0,0.1c0,0,0,0,0,0
				c0,1.7,0,3.8,0,5.6v2.9c0,1.8,0,4.2,0,5.8c0.6,0.6,1.5,1.4,2.1,2c3.2,3,6.3,6,9.5,8.9c0.2,0.1,0.4,0.3,0.6,0.5
				c0.2,0.2,0.3,0.4,0.4,0.7c0.2,0.3,0.3,0.6,0.4,0.9c0.4,1.4,0,2.8-0.9,3.8c-0.9,0.9-2.1,1.5-3.4,1.5c-2.9,0-5.8,0-8.7,0v6.6v2.1
				c1.5,0,3.2,0,4.6,0c1.1,0,2.8,0,3.9,0c0.1,0,0.2,0,0.3,0c0.3,0,0.6,0.1,0.9,0.1c0.4,0.1,0.8,0.2,1.1,0.4c1,0.5,1.7,1.3,2.1,2.4
				c0.1,0.3,0.2,0.6,0.2,0.9c0,0.4,0,0.7,0,1.1c-0.1,0.7-0.4,1.3-0.8,1.8c-0.1,0.2-0.3,0.4-0.5,0.5c-0.4,0.5-0.9,0.9-1.4,1.3
				c-0.6,0.5-3.3,2.9-10.4,9.8c0.1,0-0.1,0.1,0,0.1c-0.1-0.1,0-0.1,0-0.1v9c13,11.4,17.1,15.3,18.1,16.6c1.1,1.4,2.7,2.4,4,3.7
				c0.1,0.1,0.2,0.2,0.3,0.2c0.1,0,0.4,0.1,0.6,0c0.1,0,0.1-0.1,0.1-0.2c-0.1-18.1-0.2-29.8-0.2-30c0-0.1,0-0.2,0-0.3
				c0-0.2,0-0.2,0-0.2c-0.1-0.2-0.4-0.2-0.6-0.2c-0.1,0-0.2,0.1-0.3,0.2c-5.2,4.4-7.2,6.1-7.9,6.7c-0.6,0.5-0.9,0.8-1.6,1.3
				c-0.4,0.4-0.8,0.7-1.3,1.1c-0.3,0.3-0.6,0.5-0.7,0.6c-0.9-1-1.8-2.1-2.7-3.1c0.4-0.3,0.9-0.8,1.5-1.3c1.5-1.3,2.1-1.8,4.6-3.9
				c2.2-1.9,3.6-3.1,4-3.4c0.7-0.6,1.3-1.1,1.7-1.4c0.2-0.1,0.3-0.2,0.5-0.3c0.5-0.3,1.1-0.5,1.8-0.6c0.4,0,0.9,0,1.3,0
				c1,0.1,1.7,0.5,2,0.8c0.1,0.1,0.3,0.2,0.3,0.2c0.2,0.2,0.4,0.4,0.5,0.4c0.3,0.3,0.6,0.7,0.8,1.2c0.2,0.4,0.3,0.9,0.3,1.4
				c0,0.3,0,0.6,0,0.8c0,2.2,0,4.1,0,5.3c0,1,0,1.6,0,4c0,2,0,3.5,0,4.4c0,1.1,0,2.2,0,4.7c0,0.2,0,3.1,0,5c0,1.5,0,3.7,0,6.5
				c0,0.2,0,0.3,0,0.5c-0.1,0.8-0.4,1.6-0.9,2.2c-0.1,0.2-0.3,0.3-0.4,0.5c-0.5,0.5-1.2,0.8-1.9,1.1c-0.9,0.3-1.8,0.3-2.7,0
				c-0.7-0.2-1.4-0.6-2-1.1c-5.3-4.6-13.5-12.5-13.5-12.5c-1.6-1.5-3.3-3-3.3-3c-1.1-1-1.9-1.7-2.5-2.2v13
				c7.1,6.3,14.1,12.6,21.2,18.8c0.2,0.2,0.5,0.5,0.7,0.8c0.2,0.3,0.4,0.6,0.5,0.9c0.3,0.6,0.3,1.3,0.3,1.9c-0.1,1-0.6,1.6-0.8,2
				c-0.3,0.4-0.6,0.7-0.9,0.9c-2.3,2.1-4.5,4.2-6.8,6.3c-1.2,1.1-2.5,2.3-3.7,3.4c0.4,0.4,1.1,0.8,1.8,1.3c1.3,0.9,2.8,1.6,4.2,2.2
				c1.8,0.8,3.7,1.3,5.7,1.7c1.3,0.2,2.7,0.3,4,0.4c0.5,0,3.9,0,4,0l0,0C175.6,152.1,175.6,37.3,175.6,24.2z M172.6,33.3
				c0,0.5,0,0.7,0,1.9c0,1.4,0,1.2,0,2.1c0,0.6,0,0.8,0,1.9c0,0.6,0,1.1,0,1.4c0,0.1,0,0.2,0,0.4c0,0.1,0,0.3-0.1,0.4
				c-0.1,0.3-0.2,0.6-0.3,0.8c-0.1,0.2-0.2,0.4-0.3,0.5c-0.2,0.3-0.5,0.6-0.8,0.9c-0.2,0.1-0.3,0.3-0.5,0.4
				c-0.1,0.1-0.2,0.1-0.3,0.2c-0.1,0-0.2,0.1-0.5,0.2c-0.3,0.1-0.5,0.2-0.8,0.3c-0.4,0.1-0.8,0.1-1.2,0.1c-0.7,0-1.4-0.2-2.1-0.5
				c-0.3-0.2-0.7-0.4-0.9-0.7c-0.4-0.3-1-0.8-1.7-1.4c-0.8-0.7-1.4-1.2-1.6-1.4c-1.4-1.2-4.4-3.7-4.4-3.7c-1-0.8-2.4-2-4.2-3.6
				c0.2-0.2,0.3-0.4,0.4-0.5c0.8-1,1.2-1.4,2.1-2.4c0.1-0.1,0.1-0.2,0.2-0.2c4,3.4,8.1,6.8,12.1,10.2c0.1,0.1,0.1,0.1,0.2,0.1
				c0.1,0,0.2,0,0.4,0c0.1,0,0.2-0.1,0.3-0.1c0-0.1,0.1-0.1,0-0.2c0-0.2,0-3.7,0-8.4l4.1,0v0c0,0.3,0,0.6,0,0.6
				C172.6,32.9,172.6,33.2,172.6,33.3z"/>
			<path class="st2" d="M161.7,135.7c0.4-0.3,0.6-0.5,0.6-0.6c0.4-0.4,0.8-0.8,1.1-1c0,0,0.1-0.1,0.2-0.2c0.1-0.1,0.1-0.1,0.1-0.1
				c0,0,0.2-0.2,0.2-0.2c0,0,0,0,0,0c0,0,0,0,0,0c0,0,0,0,0,0c-0.3-0.2-0.7-0.6-1.3-1.1c-2.6-2.3-4.5-4.1-5-4.5
				c-1.6-1.5-4.8-4.4-12.2-10.9c0,0.8,0,1.6,0,2.4c0,1,0,1.9,0,2.9c0,1.1,0,1.6,0,2.4c0,0.4,0,1.2,0,1.4c0,1.5,0.2,2.9,0.4,4.4
				c0.3,1.9,0.9,3.7,1.6,5.5c1,2.3,2.3,4.5,3.9,6.5c0.5,0.6,0.9,1,1.2,1.4c4.4-4.1,7.7-7,8.2-7.5
				C161.2,136.1,161.7,135.7,161.7,135.7z"/>
		</g>
		<g>
			<path class="st3" d="M199.7,57.3c-0.2,0-0.5,0-0.8,0c0,0-0.1,0-0.1,0c-0.2,0-0.4,0-0.6,0c-0.8,0-0.8,0-0.8,0
				c-0.8-0.1-1.5-0.3-2.2-0.7c-0.4-0.3-0.8-0.6-1.2-1c-0.4-0.5-0.7-1-0.8-1.6c-0.1-0.6-0.2-1.2-0.1-1.8c0.1-0.6,0.3-1.1,0.6-1.6
				c0.1-0.2,0.3-0.4,0.4-0.5c0.9-1,8.5-7.9,9-8.4c-1.1-2.6-2.6-5-4.5-7.1c-0.3-0.4-0.6-0.7-0.8-0.9c-2.6,2.2-5.1,4.5-7.8,6.7
				c-1.2,1-2.4,2.1-3.6,3.1c-0.2,0.2-0.4,0.3-0.6,0.4c-0.5,0.3-1,0.5-1.6,0.6c-0.5,0.1-1.1,0.1-1.7,0.1c-1.1-0.2-1.9-0.7-2.3-1.1
				c-0.2-0.1-0.3-0.2-0.5-0.4c-0.6-0.6-0.8-1.2-0.9-1.6c-0.1-0.2-0.1-0.5-0.2-0.7c0-0.9,0-1.7,0-2.6c0-2.2,0-4.4,0-6.5h4.1h0
				c0,2.8,0,5.7,0,8.5c0,0,0,0.1,0,0.1c0.1,0.2,0.4,0.2,0.6,0.2c0.1,0,0.2,0,0.2-0.1c0,0,0.1-0.1,0.1-0.1c0.1-0.1,4.4-3.7,11.1-9.5
				c-0.3-0.3-0.8-0.6-1.3-1c-4.3-3.2-9.4-5.1-14.8-5.6c-0.2,0-0.4,0-0.7-0.1c-0.2,0-0.6,0-1.1-0.1c-0.4,0-0.8,0-1.4,0
				c0,13.2,0,39.1,0,39.1h30.1v-6.1c-1,0-2,0-2.8,0C202.4,57.3,201,57.3,199.7,57.3z"/>
			<path class="st3" d="M197.2,53c0,0,0,0.1,0,0.1c0,0.1,0.1,0.1,0.1,0.1c0.1,0,0.2,0.1,0.4,0c2.7,0,5.3,0,8-0.1
				c0-1.1-0.1-2-0.2-2.9c-0.1-1-0.3-1.8-0.4-2.4c-0.1-0.7-0.3-1.3-0.4-1.8C201.8,48.7,197.3,52.8,197.2,53z"/>
		</g>
		<g>
			<path class="st4" d="M194.8,126.7c-1.3,1.2-2.5,2.3-3.6,3.3c-1.6,1.5-3.1,2.8-4.2,3.8c0.6,0.6,1.6,1.5,2.7,2.5
				c0.6,0.5,1.1,1.1,1.7,1.6c3,2.8,5.2,4.8,6.1,5.6c2,1.8,4.7,4.3,8.2,7.7v-34.3c-2.1,1.9-3.9,3.6-5.4,4.9
				C198.3,123.5,196.7,125,194.8,126.7z"/>
			<path class="st4" d="M200.4,69.6c-0.3,0-0.5,0-0.8,0c-0.1,0-1.6-0.1-2.2,0c0,0,0,0,0,0c-0.1,0-0.2,0.1-0.2,0.1c0,0,0,0.1,0,0.1
				c0,0,0.1,0.1,0.1,0.1c0.2,0.2,0.4,0.4,0.6,0.6c1.8,1.8,3.7,3.5,5.7,5.3c0.7,0.6,1.4,1.2,2.1,1.8v-8
				C205.7,69.6,201.2,69.6,200.4,69.6z"/>
			<path class="st4" d="M205.7,65.5v-2.2h-30.1l0,0v88.8h24.9c-2.9-2.8-5.9-5.6-8.8-8.3c-1-0.9-2-1.9-3-2.8
				c-0.1-0.1-0.7-0.6-1.5-1.4c-0.9-0.8-1.6-1.5-2.1-2c-0.2-0.2-0.4-0.3-0.5-0.4c-0.2-0.2-0.3-0.3-0.5-0.4c-0.1-0.1-0.3-0.3-0.4-0.5
				c-0.3-0.4-0.5-0.7-0.6-1.2c-0.1-0.3-0.2-0.6-0.2-0.9c0-0.4,0-0.8,0-1.1c0.1-0.8,0.5-1.5,1-2.1c0.1-0.2,0.3-0.3,0.4-0.4
				c2.1-1.9,4.3-3.7,6.3-5.7c0.3-0.3,0.6-0.6,0.9-0.9c1.7-1.7,2.2-1.9,6.7-6.1c3-2.7,5.7-5.3,6.5-6c0.3-0.3,0.7-0.6,1-0.9V98.9
				c-7.2,6.6-11.5,10.6-13.9,12.9c-1.5,1.4-2.2,2.1-2.5,2.3c-0.8,0.8-1.3,1.2-2,1.8c-0.1,0.1-0.3,0.3-0.7,0.6
				c-0.3,0.3-0.6,0.5-1,0.7c-0.7,0.4-1.6,0.6-2.4,0.6c-0.1,0-0.3,0-0.4,0c-0.1,0-0.9-0.1-1.5-0.4c-0.1-0.1-0.3-0.1-0.3-0.1
				c-0.3-0.1-0.5-0.3-0.8-0.5c-0.3-0.3-0.6-0.6-0.9-0.9c-0.4-0.6-0.7-1.3-0.8-2c0-0.2,0-0.5,0-0.7c0.1-1.7,0.2-21.7,0.1-25.5
				c0-1.5,0.1-3,0-4.5c0-0.7,0.1-1.4,0.3-2c0.2-0.5,0.5-0.9,0.8-1.3c1.1-1.1,2.7-1.7,4.2-1.4c0.2,0,0.3,0.1,0.5,0.1
				c0.9,0.2,1.5,0.7,2.1,1.2c0.2,0.1,0.4,0.4,0.9,0.8c0.3,0.3,0.6,0.5,0.7,0.6c0.6,0.5,1.1,1,1.7,1.4c0.1,0.1,0.2,0.2,0.3,0.3
				c1,0.8,3.8,3.3,7.8,6.6c0,0,0,0,0,0l0,0c0,0,0,0,0,0c-0.4,0.5-0.8,1-1.3,1.5c-0.5,0.5-0.9,1.1-1.4,1.6c0,0,0,0,0,0c0,0,0,0,0,0
				c-1.8-1.5-3.6-3.1-5.4-4.6c-2.1-1.8-4.2-3.6-6.2-5.3c-0.1-0.1-0.2-0.1-0.4-0.1c-0.1,0-0.3,0-0.4,0.1c0,0-0.1,0.1-0.1,0.1
				c0,9.9,0,19.8-0.2,29.8c0,0.2,0,0.8,0,1c0.1,0.1,0.1,0.1,0.2,0.1c0.1,0,0.1,0,0.2,0c0,0,0.1,0,0.1,0c0.1,0,0.2,0,0.3-0.1
				c0.1-0.1,0.2-0.2,0.3-0.3c3.2-2.9,5.7-5.2,7.4-6.8c0.1-0.1,0.1-0.1,0.2-0.2c3.1-2.8,3.4-3.2,6.8-6.3c2.7-2.5,3.5-3.2,6.2-5.8
				c0.5-0.4,0.8-0.8,1.1-1.1v-9.7c-0.1-0.1-5.9-5.5-6-5.6l-5.6-5.3c-0.2-0.2-0.4-0.5-0.5-0.8c-0.2-0.4-0.4-0.8-0.5-1.2
				c-0.1-0.5-0.1-1,0-1.5c0.1-0.7,0.5-1.3,0.9-1.9c0.9-1.1,2.1-1.5,2.7-1.6c0.1,0,0.3-0.1,0.3-0.1C199.8,65.5,202.8,65.5,205.7,65.5
				L205.7,65.5z"/>
		</g>
		<g>
			<path class="st5" d="M205.7,151.1v-34.3c2.2-2.1,4.8-4.5,7.7-7.1v0.3c-0.2,13.5-0.1,19.5,0,22.3v5c0,0.1,0,0.3,0,0.4
				c-0.1,1.3-0.2,2.9-0.6,5c-0.4,2-0.9,3.9-1.6,5.8c-0.7,1.9-1.6,3.6-2.6,5.3L205.7,151.1z"/>
			<path class="st5" d="M205.7,63.3v29.9c0.9-0.9,6.5-6,7.7-7.1V63.3H205.7z"/>
			<path class="st5" d="M205.9,157.2c-1.7,2.1-3.6,3.9-5.7,5.5c-2.1,1.6-4.3,2.9-6.6,4c-1.7,0.7-3.4,1.4-5.2,1.8
				c-1.5,0.4-3.1,0.7-4.6,0.9c-2.2,0.2-4.1,0.2-6.3,0.2c-0.9,0-1.4,0-1.9-0.1c0-5.8,0-11.6,0-17.5h24.9L205.9,157.2z"/>
			<path class="st5" d="M205.7,98.9v12.2c1.5-1.4,3-2.8,5-4.6c1.1-1,2.1-1.9,2.7-2.4V91.7C210.5,94.3,207.9,96.8,205.7,98.9
				L205.7,98.9z"/>
		</g>
	</g>
</g>
</svg>
